<?xml version="1.0" standalone="no"?>
<!DOCTYPE svg PUBLIC "-//W3C//DTD SVG 20010904//EN"
 "http://www.w3.org/TR/2001/REC-SVG-20010904/DTD/svg10.dtd">
<svg version="1.0" xmlns="http://www.w3.org/2000/svg"
 width="630.000000pt" height="630.000000pt" viewBox="0 0 630.000000 630.000000"
 preserveAspectRatio="xMidYMid meet">
<metadata>
Created by potrace 1.11, written by Peter Selinger 2001-2013
</metadata>
<g transform="translate(0.000000,630.000000) scale(0.100000,-0.100000)"
fill="#000000" stroke="none">
<path d="M2905 6070 c-438 -32 -818 -139 -1210 -338 -1203 -613 -1813 -1941
-1480 -3220 99 -378 292 -755 548 -1072 98 -121 323 -345 447 -444 324 -259
756 -471 1170 -576 269 -68 479 -93 780 -93 699 0 1363 230 1910 663 128 101
349 321 451 450 284 356 473 755 558 1178 45 223 56 335 55 577 -1 330 -36
549 -139 860 -103 314 -252 591 -464 865 -89 116 -345 375 -464 471 -452 365
-1005 596 -1587 663 -162 19 -436 27 -575 16z m490 -160 c814 -76 1586 -500
2059 -1133 369 -494 553 -1070 533 -1671 -8 -247 -38 -437 -103 -661 -61 -210
-185 -480 -307 -668 -73 -114 -91 -127 -332 -242 -425 -204 -819 -287 -1355
-286 -486 0 -874 68 -1255 218 -331 131 -643 317 -980 588 -490 393 -798 788
-895 1145 -9 36 -33 117 -53 180 -20 63 -48 158 -62 210 -34 123 -71 185 -176
293 l-85 88 47 129 c240 658 723 1192 1369 1514 315 157 642 253 985 291 148
16 462 18 610 5z"/>
<path d="M3010 4523 c-360 -28 -691 -138 -955 -317 -184 -124 -392 -361 -455
-518 -13 -32 -29 -58 -36 -58 -12 0 -51 -76 -104 -200 -15 -36 -46 -94 -68
-129 -23 -35 -42 -74 -42 -87 0 -26 64 -114 158 -216 96 -104 123 -138 116
-149 -3 -5 0 -8 6 -7 6 2 22 -17 36 -40 14 -24 42 -67 63 -95 21 -29 44 -63
51 -76 23 -44 131 -191 197 -269 72 -85 214 -197 301 -238 165 -78 391 -143
590 -169 125 -17 401 -19 522 -5 242 29 463 94 665 195 175 88 297 176 437
318 91 92 129 140 178 221 80 136 135 263 165 378 24 96 44 148 58 148 4 0 7
22 7 50 0 38 -7 61 -30 98 -16 27 -59 115 -95 196 -82 187 -121 257 -194 348
-165 205 -314 323 -544 433 -302 145 -683 215 -1027 188z m366 -304 c327 -31
646 -137 880 -291 160 -106 210 -161 391 -432 54 -81 80 -148 108 -274 16 -71
16 -72 -6 -110 -31 -49 -121 -162 -130 -162 -4 0 -21 -22 -38 -49 -16 -28 -39
-55 -51 -61 -11 -6 -18 -16 -14 -21 10 -16 -183 -200 -271 -258 -298 -196
-703 -311 -1103 -311 -218 0 -457 35 -654 96 -82 26 -98 35 -245 152 -194 154
-506 461 -552 543 -17 31 -31 70 -31 85 0 16 -11 45 -23 64 -20 29 -23 40 -15
70 5 19 14 53 19 74 5 22 30 78 56 125 25 47 68 129 96 181 59 112 76 132 182
215 186 144 390 241 645 305 251 63 510 83 756 59z"/>
<path d="M2975 4059 c-224 -20 -502 -92 -666 -174 -101 -50 -221 -132 -296
-199 -33 -31 -68 -56 -75 -56 -9 0 -20 -18 -27 -42 -19 -64 -97 -207 -152
-279 -52 -69 -61 -99 -29 -99 13 0 25 -12 35 -36 21 -51 81 -149 132 -216 25
-32 39 -59 33 -63 -37 -23 55 -135 184 -223 281 -194 673 -293 1105 -279 321
10 570 70 815 195 226 115 323 216 483 503 54 96 60 104 86 101 25 -3 27 0 27
30 0 21 -12 53 -32 84 -17 27 -62 101 -101 164 -186 308 -529 504 -1007 574
-137 20 -376 27 -515 15z m501 -230 c167 -32 255 -63 321 -114 32 -25 90 -68
129 -95 65 -46 177 -168 281 -305 17 -23 38 -45 47 -48 23 -9 20 -34 -12 -102
-32 -66 -192 -251 -268 -309 -100 -77 -298 -162 -464 -201 -95 -22 -102 -18
-35 18 134 72 259 233 301 387 27 103 23 264 -9 365 -61 186 -190 328 -366
401 -70 29 -59 29 75 3z m-571 -6 c-107 -44 -219 -137 -285 -238 -121 -186
-134 -444 -32 -647 47 -96 169 -219 267 -271 l70 -38 -45 7 c-153 22 -363 94
-477 164 -43 26 -156 144 -280 294 -57 69 -72 93 -67 110 14 46 98 190 146
249 112 138 189 207 280 253 131 66 345 132 433 133 29 0 29 -1 -10 -16z m398
-246 c150 -74 243 -245 216 -394 -31 -169 -173 -299 -339 -311 -56 -4 -82 0
-151 23 -103 35 -164 88 -212 184 -29 60 -32 74 -32 161 0 84 3 101 28 150 50
98 136 171 242 207 65 21 182 12 248 -20z"/>
<path d="M3077 3474 c-70 -22 -141 -94 -161 -163 -20 -68 -20 -94 -1 -157 32
-109 153 -192 261 -181 138 14 236 122 235 258 -1 175 -168 297 -334 243z"/>
</g>
</svg>
